<svg id="visual" viewBox="0 0 1920 1080" width="1920" height="1080" xmlns="http://www.w3.org/2000/svg" xmlns:xlink="http://www.w3.org/1999/xlink" version="1.1"><rect x="0" y="0" width="1920" height="1080" fill="#7f674e"></rect><defs><linearGradient id="grad1_0" x1="43.8%" y1="100%" x2="100%" y2="0%"><stop offset="14.444444444444446%" stop-color="#b1a38e" stop-opacity="1"></stop><stop offset="85.55555555555554%" stop-color="#b1a38e" stop-opacity="1"></stop></linearGradient></defs><defs><linearGradient id="grad1_1" x1="43.8%" y1="100%" x2="100%" y2="0%"><stop offset="14.444444444444446%" stop-color="#b1a38e" stop-opacity="1"></stop><stop offset="85.55555555555554%" stop-color="#aa9a84" stop-opacity="1"></stop></linearGradient></defs><defs><linearGradient id="grad1_2" x1="43.8%" y1="100%" x2="100%" y2="0%"><stop offset="14.444444444444446%" stop-color="#a2917b" stop-opacity="1"></stop><stop offset="85.55555555555554%" stop-color="#aa9a84" stop-opacity="1"></stop></linearGradient></defs><defs><linearGradient id="grad1_3" x1="43.8%" y1="100%" x2="100%" y2="0%"><stop offset="14.444444444444446%" stop-color="#a2917b" stop-opacity="1"></stop><stop offset="85.55555555555554%" stop-color="#9b8972" stop-opacity="1"></stop></linearGradient></defs><defs><linearGradient id="grad1_4" x1="43.8%" y1="100%" x2="100%" y2="0%"><stop offset="14.444444444444446%" stop-color="#948068" stop-opacity="1"></stop><stop offset="85.55555555555554%" stop-color="#9b8972" stop-opacity="1"></stop></linearGradient></defs><defs><linearGradient id="grad1_5" x1="43.8%" y1="100%" x2="100%" y2="0%"><stop offset="14.444444444444446%" stop-color="#948068" stop-opacity="1"></stop><stop offset="85.55555555555554%" stop-color="#8d785f" stop-opacity="1"></stop></linearGradient></defs><defs><linearGradient id="grad1_6" x1="43.8%" y1="100%" x2="100%" y2="0%"><stop offset="14.444444444444446%" stop-color="#866f57" stop-opacity="1"></stop><stop offset="85.55555555555554%" stop-color="#8d785f" stop-opacity="1"></stop></linearGradient></defs><defs><linearGradient id="grad1_7" x1="43.8%" y1="100%" x2="100%" y2="0%"><stop offset="14.444444444444446%" stop-color="#866f57" stop-opacity="1"></stop><stop offset="85.55555555555554%" stop-color="#7f674e" stop-opacity="1"></stop></linearGradient></defs><defs><linearGradient id="grad2_0" x1="0%" y1="100%" x2="56.3%" y2="0%"><stop offset="14.444444444444446%" stop-color="#b1a38e" stop-opacity="1"></stop><stop offset="85.55555555555554%" stop-color="#b1a38e" stop-opacity="1"></stop></linearGradient></defs><defs><linearGradient id="grad2_1" x1="0%" y1="100%" x2="56.3%" y2="0%"><stop offset="14.444444444444446%" stop-color="#aa9a84" stop-opacity="1"></stop><stop offset="85.55555555555554%" stop-color="#b1a38e" stop-opacity="1"></stop></linearGradient></defs><defs><linearGradient id="grad2_2" x1="0%" y1="100%" x2="56.3%" y2="0%"><stop offset="14.444444444444446%" stop-color="#aa9a84" stop-opacity="1"></stop><stop offset="85.55555555555554%" stop-color="#a2917b" stop-opacity="1"></stop></linearGradient></defs><defs><linearGradient id="grad2_3" x1="0%" y1="100%" x2="56.3%" y2="0%"><stop offset="14.444444444444446%" stop-color="#9b8972" stop-opacity="1"></stop><stop offset="85.55555555555554%" stop-color="#a2917b" stop-opacity="1"></stop></linearGradient></defs><defs><linearGradient id="grad2_4" x1="0%" y1="100%" x2="56.3%" y2="0%"><stop offset="14.444444444444446%" stop-color="#9b8972" stop-opacity="1"></stop><stop offset="85.55555555555554%" stop-color="#948068" stop-opacity="1"></stop></linearGradient></defs><defs><linearGradient id="grad2_5" x1="0%" y1="100%" x2="56.3%" y2="0%"><stop offset="14.444444444444446%" stop-color="#8d785f" stop-opacity="1"></stop><stop offset="85.55555555555554%" stop-color="#948068" stop-opacity="1"></stop></linearGradient></defs><defs><linearGradient id="grad2_6" x1="0%" y1="100%" x2="56.3%" y2="0%"><stop offset="14.444444444444446%" stop-color="#8d785f" stop-opacity="1"></stop><stop offset="85.55555555555554%" stop-color="#866f57" stop-opacity="1"></stop></linearGradient></defs><defs><linearGradient id="grad2_7" x1="0%" y1="100%" x2="56.3%" y2="0%"><stop offset="14.444444444444446%" stop-color="#7f674e" stop-opacity="1"></stop><stop offset="85.55555555555554%" stop-color="#866f57" stop-opacity="1"></stop></linearGradient></defs><g transform="translate(1920, 1080)"><path d="M-859 0C-838.3 -34.8 -817.6 -69.5 -853.2 -122.7C-888.8 -175.8 -980.8 -247.4 -962.4 -282.6C-944 -317.8 -815.3 -316.7 -800.5 -365.6C-785.7 -414.5 -884.7 -513.4 -908.6 -583.9C-932.4 -654.4 -881.1 -696.6 -805.6 -698.1C-730.2 -699.6 -630.7 -660.4 -567.8 -655.2C-504.8 -650 -478.4 -678.8 -447.1 -695.7C-415.8 -712.7 -379.6 -717.8 -354.3 -775.9C-329.1 -834 -314.9 -945 -272.2 -926.9C-229.4 -908.8 -158 -761.6 -107.9 -750.3C-57.8 -739 -28.9 -863.5 0 -988L0 0Z" fill="#826b52"></path><path d="M-751.6 0C-733.5 -30.4 -715.4 -60.8 -746.6 -107.3C-777.7 -153.8 -858.2 -216.4 -842.1 -247.3C-826 -278.1 -713.4 -277.1 -700.4 -319.9C-687.4 -362.7 -774.1 -449.2 -795 -510.9C-815.9 -572.6 -770.9 -609.5 -704.9 -610.8C-638.9 -612.1 -551.9 -577.9 -496.8 -573.3C-441.7 -568.8 -418.6 -593.9 -391.2 -608.8C-363.8 -623.6 -332.1 -628.1 -310.1 -678.9C-288 -729.7 -275.6 -826.8 -238.1 -811C-200.7 -795.2 -138.2 -666.4 -94.4 -656.5C-50.5 -646.6 -25.3 -755.5 0 -864.5L0 0Z" fill="#89745b"></path><path d="M-644.2 0C-628.7 -26.1 -613.2 -52.1 -639.9 -92C-666.6 -131.9 -735.6 -185.5 -721.8 -211.9C-708 -238.3 -611.5 -237.5 -600.4 -274.2C-589.2 -310.8 -663.5 -385 -681.4 -437.9C-699.3 -490.8 -660.8 -522.4 -604.2 -523.6C-547.7 -524.7 -473 -495.3 -425.8 -491.4C-378.6 -487.5 -358.8 -509.1 -335.3 -521.8C-311.8 -534.5 -284.7 -538.4 -265.8 -581.9C-246.9 -625.5 -236.2 -708.7 -204.1 -695.2C-172 -681.6 -118.5 -571.2 -80.9 -562.7C-43.3 -554.2 -21.7 -647.6 0 -741L0 0Z" fill="#907c64"></path><path d="M-536.9 0C-523.9 -21.7 -511 -43.5 -533.3 -76.7C-555.5 -109.9 -613 -154.6 -601.5 -176.6C-590 -198.6 -509.6 -197.9 -500.3 -228.5C-491 -259 -552.9 -320.9 -567.8 -364.9C-582.8 -409 -550.7 -435.4 -503.5 -436.3C-456.4 -437.2 -394.2 -412.8 -354.9 -409.5C-315.5 -406.3 -299 -424.2 -279.4 -434.8C-259.9 -445.4 -237.2 -448.7 -221.5 -484.9C-205.7 -521.2 -196.8 -590.6 -170.1 -579.3C-143.4 -568 -98.7 -476 -67.4 -468.9C-36.1 -461.9 -18 -539.7 0 -617.5L0 0Z" fill="#98856d"></path><path d="M-429.5 0C-419.2 -17.4 -408.8 -34.8 -426.6 -61.3C-444.4 -87.9 -490.4 -123.7 -481.2 -141.3C-472 -158.9 -407.6 -158.3 -400.2 -182.8C-392.8 -207.2 -442.4 -256.7 -454.3 -291.9C-466.2 -327.2 -440.5 -348.3 -402.8 -349C-365.1 -349.8 -315.4 -330.2 -283.9 -327.6C-252.4 -325 -239.2 -339.4 -223.6 -347.9C-207.9 -356.3 -189.8 -358.9 -177.2 -388C-164.6 -417 -157.5 -472.5 -136.1 -463.4C-114.7 -454.4 -79 -380.8 -53.9 -375.1C-28.9 -369.5 -14.4 -431.7 0 -494L0 0Z" fill="#9f8d76"></path><path d="M-322.1 0C-314.4 -13 -306.6 -26.1 -320 -46C-333.3 -65.9 -367.8 -92.8 -360.9 -106C-354 -119.2 -305.7 -118.8 -300.2 -137.1C-294.6 -155.4 -331.8 -192.5 -340.7 -219C-349.7 -245.4 -330.4 -261.2 -302.1 -261.8C-273.8 -262.3 -236.5 -247.7 -212.9 -245.7C-189.3 -243.8 -179.4 -254.5 -167.7 -260.9C-155.9 -267.3 -142.3 -269.2 -132.9 -291C-123.4 -312.7 -118.1 -354.4 -102.1 -347.6C-86 -340.8 -59.2 -285.6 -40.5 -281.4C-21.7 -277.1 -10.8 -323.8 0 -370.5L0 0Z" fill="#a69680"></path><path d="M-214.7 0C-209.6 -8.7 -204.4 -17.4 -213.3 -30.7C-222.2 -44 -245.2 -61.8 -240.6 -70.6C-236 -79.4 -203.8 -79.2 -200.1 -91.4C-196.4 -103.6 -221.2 -128.3 -227.1 -146C-233.1 -163.6 -220.3 -174.1 -201.4 -174.5C-182.6 -174.9 -157.7 -165.1 -141.9 -163.8C-126.2 -162.5 -119.6 -169.7 -111.8 -173.9C-103.9 -178.2 -94.9 -179.5 -88.6 -194C-82.3 -208.5 -78.7 -236.2 -68 -231.7C-57.3 -227.2 -39.5 -190.4 -27 -187.6C-14.4 -184.7 -7.2 -215.9 0 -247L0 0Z" fill="#ad9f89"></path><path d="M-107.4 0C-104.8 -4.3 -102.2 -8.7 -106.7 -15.3C-111.1 -22 -122.6 -30.9 -120.3 -35.3C-118 -39.7 -101.9 -39.6 -100.1 -45.7C-98.2 -51.8 -110.6 -64.2 -113.6 -73C-116.6 -81.8 -110.1 -87.1 -100.7 -87.3C-91.3 -87.4 -78.8 -82.6 -71 -81.9C-63.1 -81.3 -59.8 -84.8 -55.9 -87C-52 -89.1 -47.4 -89.7 -44.3 -97C-41.1 -104.2 -39.4 -118.1 -34 -115.9C-28.7 -113.6 -19.7 -95.2 -13.5 -93.8C-7.2 -92.4 -3.6 -107.9 0 -123.5L0 0Z" fill="#b1a38e"></path></g><g transform="translate(0, 0)"><path d="M1024 0C1060.2 55.6 1096.5 111.2 1069 153.7C1041.5 196.2 950.4 225.5 909.6 267.1C868.8 308.6 878.4 362.4 829.6 378.9C780.8 395.3 673.6 374.5 672.2 432C670.7 489.4 775 625 751.2 650.9C727.4 676.8 575.6 593 513.4 592.5C451.2 592 478.7 674.9 480.6 747.9C482.6 820.9 459.1 884 425.8 932.4C392.5 980.7 349.4 1014.2 300.6 1023.8C251.8 1033.3 197.3 1018.8 146.3 1017.5C95.3 1016.2 47.6 1028.1 0 1040L0 0Z" fill="#826b52"></path><path d="M896 0C927.7 48.7 959.4 97.3 935.4 134.5C911.4 171.7 831.6 197.3 795.9 233.7C760.2 270.1 768.6 317.1 725.9 331.5C683.2 345.9 589.4 327.7 588.1 378C586.9 428.2 678.1 546.9 657.3 569.6C636.5 592.2 503.7 518.9 449.2 518.4C394.8 518 418.8 590.5 420.6 654.4C422.3 718.3 401.7 773.5 372.6 815.8C343.4 858.1 305.7 887.5 263 895.8C220.3 904.1 172.7 891.5 128 890.3C83.3 889.2 41.7 899.6 0 910L0 0Z" fill="#89745b"></path><path d="M768 0C795.2 41.7 822.4 83.4 801.8 115.3C781.2 147.1 712.8 169.1 682.2 200.3C651.6 231.5 658.8 271.8 622.2 284.1C585.6 296.5 505.2 280.9 504.1 324C503 367 581.2 468.8 563.4 488.2C545.6 507.6 431.7 444.7 385.1 444.4C338.4 444 359 506.2 360.5 560.9C362 615.7 344.3 663 319.4 699.3C294.4 735.5 262 760.7 225.5 767.8C188.9 775 148 764.1 109.7 763.2C71.4 762.2 35.7 771.1 0 780L0 0Z" fill="#907c64"></path><path d="M640 0C662.6 34.8 685.3 69.5 668.1 96.1C651 122.6 594 141 568.5 166.9C543 192.9 549 226.5 518.5 236.8C488 247.1 421 234.1 420.1 270C419.2 305.9 484.4 390.6 469.5 406.8C454.6 423 359.8 370.6 320.9 370.3C282 370 299.2 421.8 300.4 467.4C301.6 513 286.9 552.5 266.1 582.7C245.3 612.9 218.4 633.9 187.9 639.9C157.4 645.8 123.3 636.8 91.4 636C59.5 635.1 29.8 642.6 0 650L0 0Z" fill="#98856d"></path><path d="M512 0C530.1 27.8 548.2 55.6 534.5 76.9C520.8 98.1 475.2 112.8 454.8 133.5C434.4 154.3 439.2 181.2 414.8 189.4C390.4 197.7 336.8 187.3 336.1 216C335.4 244.7 387.5 312.5 375.6 325.5C363.7 338.4 287.8 296.5 256.7 296.3C225.6 296 239.3 337.4 240.3 373.9C241.3 410.4 229.6 442 212.9 466.2C196.2 490.4 174.7 507.1 150.3 511.9C125.9 516.7 98.7 509.4 73.1 508.8C47.6 508.1 23.8 514.1 0 520L0 0Z" fill="#9f8d76"></path><path d="M384 0C397.6 20.9 411.2 41.7 400.9 57.6C390.6 73.6 356.4 84.6 341.1 100.2C325.8 115.7 329.4 135.9 311.1 142.1C292.8 148.3 252.6 140.5 252.1 162C251.5 183.5 290.6 234.4 281.7 244.1C272.8 253.8 215.9 222.4 192.5 222.2C169.2 222 179.5 253.1 180.2 280.5C181 307.8 172.2 331.5 159.7 349.6C147.2 367.8 131 380.3 112.7 383.9C94.4 387.5 74 382.1 54.9 381.6C35.7 381.1 17.9 385.5 0 390L0 0Z" fill="#a69680"></path><path d="M256 0C265.1 13.9 274.1 27.8 267.3 38.4C260.4 49 237.6 56.4 227.4 66.8C217.2 77.2 219.6 90.6 207.4 94.7C195.2 98.8 168.4 93.6 168 108C167.7 122.3 193.7 156.3 187.8 162.7C181.9 169.2 143.9 148.2 128.4 148.1C112.8 148 119.7 168.7 120.2 187C120.7 205.2 114.8 221 106.5 233.1C98.1 245.2 87.3 253.6 75.2 255.9C63 258.3 49.3 254.7 36.6 254.4C23.8 254.1 11.9 257 0 260L0 0Z" fill="#ad9f89"></path><path d="M128 0C132.5 7 137.1 13.9 133.6 19.2C130.2 24.5 118.8 28.2 113.7 33.4C108.6 38.6 109.8 45.3 103.7 47.4C97.6 49.4 84.2 46.8 84 54C83.8 61.2 96.9 78.1 93.9 81.4C90.9 84.6 72 74.1 64.2 74.1C56.4 74 59.8 84.4 60.1 93.5C60.3 102.6 57.4 110.5 53.2 116.5C49.1 122.6 43.7 126.8 37.6 128C31.5 129.2 24.7 127.4 18.3 127.2C11.9 127 6 128.5 0 130L0 0Z" fill="#b1a38e"></path></g></svg>